<mxfile host="app.diagrams.net" agent="Mozilla/5.0 (Windows NT 10.0; Win64; x64) AppleWebKit/537.36 (KHTML, like Gecko) Chrome/134.0.0.0 Safari/537.36 Edg/134.0.0.0" version="24.7.17">
  <diagram name="第 1 页" id="1d8SHGeGfvOVqpzbg15v">
    <mxGraphModel dx="1540" dy="1109" grid="1" gridSize="10" guides="1" tooltips="1" connect="1" arrows="1" fold="1" page="1" pageScale="1" pageWidth="827" pageHeight="1169" math="0" shadow="0">
      <root>
        <mxCell id="0" />
        <mxCell id="1" parent="0" />
        <mxCell id="uieHpV8FjPhWit5BXzTf-2" value="" style="sketch=0;points=[[0,0,0],[0.25,0,0],[0.5,0,0],[0.75,0,0],[1,0,0],[0,1,0],[0.25,1,0],[0.5,1,0],[0.75,1,0],[1,1,0],[0,0.25,0],[0,0.5,0],[0,0.75,0],[1,0.25,0],[1,0.5,0],[1,0.75,0]];outlineConnect=0;fontColor=#333333;fillColor=#f5f5f5;strokeColor=#3333FF;dashed=0;verticalLabelPosition=bottom;verticalAlign=top;align=center;html=1;fontSize=12;fontStyle=0;aspect=fixed;shape=mxgraph.aws4.resourceIcon;resIcon=mxgraph.aws4.database;" vertex="1" parent="1">
          <mxGeometry x="-329" y="210" width="78" height="78" as="geometry" />
        </mxCell>
        <mxCell id="uieHpV8FjPhWit5BXzTf-4" value="" style="endArrow=none;dashed=1;html=1;rounded=0;" edge="1" parent="1">
          <mxGeometry width="50" height="50" relative="1" as="geometry">
            <mxPoint x="-452" y="200" as="sourcePoint" />
            <mxPoint x="-121" y="200" as="targetPoint" />
          </mxGeometry>
        </mxCell>
        <mxCell id="uieHpV8FjPhWit5BXzTf-5" value="" style="endArrow=none;dashed=1;html=1;rounded=0;" edge="1" parent="1">
          <mxGeometry width="50" height="50" relative="1" as="geometry">
            <mxPoint x="-452" y="370" as="sourcePoint" />
            <mxPoint x="-121" y="370" as="targetPoint" />
          </mxGeometry>
        </mxCell>
        <mxCell id="uieHpV8FjPhWit5BXzTf-6" value="&lt;font style=&quot;font-size: 18px;&quot; face=&quot;Times New Roman&quot;&gt;Edge Layer&lt;/font&gt;" style="text;html=1;align=center;verticalAlign=middle;resizable=0;points=[];autosize=1;strokeColor=none;fillColor=none;" vertex="1" parent="1">
          <mxGeometry x="-121" y="268" width="110" height="40" as="geometry" />
        </mxCell>
        <mxCell id="uieHpV8FjPhWit5BXzTf-7" value="&lt;span style=&quot;color: rgb(17, 17, 17); text-align: start; white-space: pre-wrap; background-color: rgb(247, 247, 247);&quot;&gt;&lt;font style=&quot;font-size: 18px;&quot; face=&quot;Times New Roman&quot;&gt;Edge Servers&lt;/font&gt;&lt;/span&gt;" style="text;html=1;align=center;verticalAlign=middle;resizable=0;points=[];autosize=1;strokeColor=none;fillColor=none;" vertex="1" parent="1">
          <mxGeometry x="-441" y="229" width="120" height="40" as="geometry" />
        </mxCell>
        <mxCell id="uieHpV8FjPhWit5BXzTf-10" value="" style="shape=image;html=1;verticalAlign=top;verticalLabelPosition=bottom;labelBackgroundColor=#ffffff;imageAspect=0;aspect=fixed;image=https://cdn1.iconfinder.com/data/icons/vehicle-37/24/Drone-128.png" vertex="1" parent="1">
          <mxGeometry x="-379" y="308" width="50" height="50" as="geometry" />
        </mxCell>
        <mxCell id="uieHpV8FjPhWit5BXzTf-11" value="&lt;font style=&quot;font-size: 18px;&quot; face=&quot;Times New Roman&quot;&gt;UAV&lt;/font&gt;" style="text;html=1;align=center;verticalAlign=middle;resizable=0;points=[];autosize=1;strokeColor=none;fillColor=none;" vertex="1" parent="1">
          <mxGeometry x="-456" y="313" width="60" height="40" as="geometry" />
        </mxCell>
        <mxCell id="uieHpV8FjPhWit5BXzTf-12" value="&lt;font style=&quot;font-size: 18px;&quot; face=&quot;Times New Roman&quot;&gt;Device Layer&lt;/font&gt;" style="text;html=1;align=center;verticalAlign=middle;resizable=0;points=[];autosize=1;strokeColor=none;fillColor=none;" vertex="1" parent="1">
          <mxGeometry x="-126" y="440" width="120" height="40" as="geometry" />
        </mxCell>
        <mxCell id="uieHpV8FjPhWit5BXzTf-21" style="rounded=0;orthogonalLoop=1;jettySize=auto;html=1;startArrow=classic;startFill=1;dashed=1;entryX=0;entryY=1;entryDx=0;entryDy=0;" edge="1" parent="1" source="uieHpV8FjPhWit5BXzTf-13" target="uieHpV8FjPhWit5BXzTf-10">
          <mxGeometry relative="1" as="geometry">
            <mxPoint x="-351" y="360" as="targetPoint" />
          </mxGeometry>
        </mxCell>
        <mxCell id="uieHpV8FjPhWit5BXzTf-13" value="" style="shape=mxgraph.signs.transportation.car_4;html=1;pointerEvents=1;fillColor=#000000;strokeColor=none;verticalLabelPosition=bottom;verticalAlign=top;align=center;" vertex="1" parent="1">
          <mxGeometry x="-429" y="470" width="50" height="46" as="geometry" />
        </mxCell>
        <mxCell id="uieHpV8FjPhWit5BXzTf-23" style="rounded=0;orthogonalLoop=1;jettySize=auto;html=1;startArrow=classic;startFill=1;dashed=1;" edge="1" parent="1" source="uieHpV8FjPhWit5BXzTf-14">
          <mxGeometry relative="1" as="geometry">
            <mxPoint x="-291" y="290" as="targetPoint" />
          </mxGeometry>
        </mxCell>
        <mxCell id="uieHpV8FjPhWit5BXzTf-14" value="" style="shape=mxgraph.signs.transportation.car_4;html=1;pointerEvents=1;fillColor=#000000;strokeColor=none;verticalLabelPosition=bottom;verticalAlign=top;align=center;" vertex="1" parent="1">
          <mxGeometry x="-291" y="516" width="50" height="46" as="geometry" />
        </mxCell>
        <mxCell id="uieHpV8FjPhWit5BXzTf-22" style="rounded=0;orthogonalLoop=1;jettySize=auto;html=1;startArrow=classic;startFill=1;dashed=1;" edge="1" parent="1" source="uieHpV8FjPhWit5BXzTf-15" target="uieHpV8FjPhWit5BXzTf-2">
          <mxGeometry relative="1" as="geometry">
            <mxPoint x="-291" y="290" as="targetPoint" />
          </mxGeometry>
        </mxCell>
        <mxCell id="uieHpV8FjPhWit5BXzTf-15" value="" style="shape=mxgraph.signs.transportation.car_4;html=1;pointerEvents=1;fillColor=#000000;strokeColor=none;verticalLabelPosition=bottom;verticalAlign=top;align=center;" vertex="1" parent="1">
          <mxGeometry x="-201" y="440" width="50" height="46" as="geometry" />
        </mxCell>
        <mxCell id="uieHpV8FjPhWit5BXzTf-20" style="rounded=0;orthogonalLoop=1;jettySize=auto;html=1;entryX=0.5;entryY=1;entryDx=0;entryDy=0;startArrow=classic;startFill=1;dashed=1;" edge="1" parent="1" source="uieHpV8FjPhWit5BXzTf-16" target="uieHpV8FjPhWit5BXzTf-10">
          <mxGeometry relative="1" as="geometry" />
        </mxCell>
        <mxCell id="uieHpV8FjPhWit5BXzTf-16" value="" style="shape=mxgraph.signs.transportation.car_4;html=1;pointerEvents=1;fillColor=#000000;strokeColor=none;verticalLabelPosition=bottom;verticalAlign=top;align=center;" vertex="1" parent="1">
          <mxGeometry x="-351" y="404" width="50" height="46" as="geometry" />
        </mxCell>
        <mxCell id="uieHpV8FjPhWit5BXzTf-19" style="rounded=0;orthogonalLoop=1;jettySize=auto;html=1;exitX=0.5;exitY=0;exitDx=0;exitDy=0;entryX=0;entryY=0.5;entryDx=0;entryDy=0;entryPerimeter=0;startArrow=classic;startFill=1;dashed=1;" edge="1" parent="1" source="uieHpV8FjPhWit5BXzTf-10" target="uieHpV8FjPhWit5BXzTf-2">
          <mxGeometry relative="1" as="geometry" />
        </mxCell>
        <mxCell id="uieHpV8FjPhWit5BXzTf-32" value="" style="shape=flexArrow;endArrow=classic;startArrow=none;html=1;rounded=0;startFill=0;strokeColor=#6c8ebf;fillColor=#dae8fc;width=5.633802816901409;strokeWidth=1;endSize=4.146478873239437;startSize=2;endWidth=4.8403094624082525;" edge="1" parent="1">
          <mxGeometry width="100" height="100" relative="1" as="geometry">
            <mxPoint x="-316" y="398" as="sourcePoint" />
            <mxPoint x="-336" y="358" as="targetPoint" />
          </mxGeometry>
        </mxCell>
        <mxCell id="uieHpV8FjPhWit5BXzTf-33" value="" style="shape=flexArrow;endArrow=classic;startArrow=none;html=1;rounded=0;startFill=0;strokeColor=#6c8ebf;fillColor=#dae8fc;width=5.633802816901409;strokeWidth=1;endSize=4.146478873239437;startSize=2;endWidth=4.8403094624082525;" edge="1" parent="1">
          <mxGeometry width="100" height="100" relative="1" as="geometry">
            <mxPoint x="-416.5" y="463" as="sourcePoint" />
            <mxPoint x="-391.5" y="353" as="targetPoint" />
          </mxGeometry>
        </mxCell>
        <mxCell id="uieHpV8FjPhWit5BXzTf-34" value="" style="shape=flexArrow;endArrow=classic;startArrow=none;html=1;rounded=0;startFill=0;strokeColor=#6c8ebf;fillColor=#dae8fc;width=5.633802816901409;strokeWidth=1;endSize=4.146478873239437;startSize=2;endWidth=4.8403094624082525;" edge="1" parent="1">
          <mxGeometry width="100" height="100" relative="1" as="geometry">
            <mxPoint x="-251" y="510" as="sourcePoint" />
            <mxPoint x="-281" y="288" as="targetPoint" />
          </mxGeometry>
        </mxCell>
        <mxCell id="uieHpV8FjPhWit5BXzTf-35" value="" style="shape=flexArrow;endArrow=classic;startArrow=none;html=1;rounded=0;startFill=0;strokeColor=#6c8ebf;fillColor=#dae8fc;width=5.633802816901409;strokeWidth=1;endSize=4.146478873239437;startSize=2;endWidth=4.8403094624082525;" edge="1" parent="1">
          <mxGeometry width="100" height="100" relative="1" as="geometry">
            <mxPoint x="-181" y="430" as="sourcePoint" />
            <mxPoint x="-261" y="288" as="targetPoint" />
          </mxGeometry>
        </mxCell>
        <mxCell id="uieHpV8FjPhWit5BXzTf-36" value="" style="shape=flexArrow;endArrow=classic;startArrow=none;html=1;rounded=0;startFill=0;strokeColor=#FF3333;fillColor=#008a00;width=5.633802816901409;strokeWidth=1;endSize=4.146478873239437;startSize=2;endWidth=4.8403094624082525;entryX=-0.057;entryY=0.053;entryDx=0;entryDy=0;entryPerimeter=0;" edge="1" parent="1" target="uieHpV8FjPhWit5BXzTf-15">
          <mxGeometry width="100" height="100" relative="1" as="geometry">
            <mxPoint x="-271" y="304" as="sourcePoint" />
            <mxPoint x="-231" y="404" as="targetPoint" />
          </mxGeometry>
        </mxCell>
        <mxCell id="uieHpV8FjPhWit5BXzTf-37" value="" style="shape=flexArrow;endArrow=classic;startArrow=none;html=1;rounded=0;startFill=0;strokeColor=#FFD966;fillColor=#e3c800;width=5.633802816901409;strokeWidth=1;endSize=4.146478873239437;startSize=2;endWidth=4.8403094624082525;" edge="1" parent="1">
          <mxGeometry width="100" height="100" relative="1" as="geometry">
            <mxPoint x="-301" y="290" as="sourcePoint" />
            <mxPoint x="-281" y="510" as="targetPoint" />
          </mxGeometry>
        </mxCell>
        <mxCell id="uieHpV8FjPhWit5BXzTf-38" value="" style="endArrow=none;dashed=1;html=1;rounded=0;" edge="1" parent="1">
          <mxGeometry width="50" height="50" relative="1" as="geometry">
            <mxPoint x="-452" y="584" as="sourcePoint" />
            <mxPoint x="-121" y="584" as="targetPoint" />
          </mxGeometry>
        </mxCell>
        <mxCell id="uieHpV8FjPhWit5BXzTf-40" style="rounded=0;orthogonalLoop=1;jettySize=auto;html=1;startArrow=classic;startFill=1;dashed=1;" edge="1" parent="1">
          <mxGeometry relative="1" as="geometry">
            <mxPoint x="10" y="260" as="targetPoint" />
            <mxPoint x="81" y="260" as="sourcePoint" />
          </mxGeometry>
        </mxCell>
        <mxCell id="uieHpV8FjPhWit5BXzTf-41" value="&lt;font style=&quot;font-size: 18px;&quot; face=&quot;Times New Roman&quot;&gt;: interact&lt;/font&gt;" style="text;html=1;align=center;verticalAlign=middle;resizable=0;points=[];autosize=1;strokeColor=none;fillColor=none;" vertex="1" parent="1">
          <mxGeometry x="80" y="240" width="90" height="40" as="geometry" />
        </mxCell>
        <mxCell id="uieHpV8FjPhWit5BXzTf-42" value="" style="shape=flexArrow;endArrow=classic;startArrow=none;html=1;rounded=0;startFill=0;strokeColor=#6c8ebf;fillColor=#dae8fc;width=5.633802816901409;strokeWidth=1;endSize=4.146478873239437;startSize=2;endWidth=4.8403094624082525;" edge="1" parent="1">
          <mxGeometry width="100" height="100" relative="1" as="geometry">
            <mxPoint x="10" y="300" as="sourcePoint" />
            <mxPoint x="80" y="300" as="targetPoint" />
          </mxGeometry>
        </mxCell>
        <mxCell id="uieHpV8FjPhWit5BXzTf-43" value="&lt;font style=&quot;font-size: 18px;&quot; face=&quot;Times New Roman&quot;&gt;: V-R&amp;nbsp;&lt;span style=&quot;text-wrap-mode: wrap;&quot;&gt;Direct trust&lt;/span&gt;&lt;/font&gt;" style="text;html=1;align=center;verticalAlign=middle;resizable=0;points=[];autosize=1;strokeColor=none;fillColor=none;" vertex="1" parent="1">
          <mxGeometry x="62" y="289" width="150" height="40" as="geometry" />
        </mxCell>
        <mxCell id="uieHpV8FjPhWit5BXzTf-44" value="" style="shape=flexArrow;endArrow=classic;startArrow=none;html=1;rounded=0;startFill=0;strokeColor=#FF3333;fillColor=#008a00;width=5.633802816901409;strokeWidth=1;endSize=4.146478873239437;startSize=2;endWidth=4.8403094624082525;" edge="1" parent="1">
          <mxGeometry width="100" height="100" relative="1" as="geometry">
            <mxPoint x="10" y="358" as="sourcePoint" />
            <mxPoint x="80" y="358" as="targetPoint" />
          </mxGeometry>
        </mxCell>
        <mxCell id="uieHpV8FjPhWit5BXzTf-45" value="&lt;font style=&quot;font-size: 18px;&quot; face=&quot;Times New Roman&quot;&gt;: R-V&amp;nbsp;&lt;/font&gt;&lt;span style=&quot;color: rgb(17, 17, 17); font-family: &amp;quot;Times New Roman&amp;quot;; font-size: 18px; text-align: start; white-space: pre-wrap; background-color: rgb(247, 247, 247);&quot;&gt;Comprehensive trust&lt;/span&gt;" style="text;html=1;align=center;verticalAlign=middle;resizable=0;points=[];autosize=1;strokeColor=none;fillColor=none;" vertex="1" parent="1">
          <mxGeometry x="62" y="348" width="220" height="40" as="geometry" />
        </mxCell>
        <mxCell id="uieHpV8FjPhWit5BXzTf-46" value="" style="shape=flexArrow;endArrow=classic;startArrow=none;html=1;rounded=0;startFill=0;strokeColor=#FFD966;fillColor=#e3c800;width=5.633802816901409;strokeWidth=1;endSize=4.146478873239437;startSize=2;endWidth=4.8403094624082525;" edge="1" parent="1">
          <mxGeometry width="100" height="100" relative="1" as="geometry">
            <mxPoint x="10" y="420" as="sourcePoint" />
            <mxPoint x="80" y="420" as="targetPoint" />
          </mxGeometry>
        </mxCell>
        <mxCell id="uieHpV8FjPhWit5BXzTf-47" value="&lt;font style=&quot;font-size: 18px;&quot; face=&quot;Times New Roman&quot;&gt;: R-V&amp;nbsp;&lt;/font&gt;&lt;span style=&quot;font-family: &amp;quot;Times New Roman&amp;quot;; font-size: 18px; text-wrap-mode: wrap;&quot;&gt;Indirect trust&lt;/span&gt;" style="text;html=1;align=center;verticalAlign=middle;resizable=0;points=[];autosize=1;strokeColor=none;fillColor=none;" vertex="1" parent="1">
          <mxGeometry x="64" y="410" width="160" height="40" as="geometry" />
        </mxCell>
      </root>
    </mxGraphModel>
  </diagram>
</mxfile>
